<?xml version="1.0" encoding="UTF-8"?> <svg xmlns="http://www.w3.org/2000/svg" width="104" height="104" viewBox="0 0 104 104" fill="none"> <circle cx="52" cy="52" r="49.5" stroke="#E5E5E5" stroke-width="5"></circle> <circle cx="52" cy="52" r="49.5" fill="white" stroke="#E5E5E5" stroke-width="5"></circle> <mask id="mask0" mask-type="alpha" maskUnits="userSpaceOnUse" x="11" y="10" width="84" height="84"> <circle cx="53" cy="52" r="42" fill="#E5A5A5"></circle> </mask> <g mask="url(#mask0)"> <path d="M38.5 43V93.5C49.5 99.8333 72.1 112.5 74.5 112.5C76.9 112.5 96.5 81.1666 106 65.5C108.667 48.3333 107.8 14.4 83 16C58.2 17.6 43 34.6666 38.5 43Z" fill="#F9F9F9"></path> <path d="M38.5 96V44.5C40 33 63.1 16.3 95.5 13.5" stroke="#E5E5E5" stroke-width="3"></path> <path d="M39 70C49.9778 57.7993 80.5467 31.5183 115 24" stroke="#E5E5E5" stroke-width="3"></path> <path d="M39 101C49.2556 88.7993 77.8133 62.5183 110 55" stroke="#E5E5E5" stroke-width="3"></path> <path d="M28.5 89V39.5C32 26.5 53 11.5 70 8.5" stroke="#E5E5E5" stroke-width="3"></path> </g> </svg> 