<?xml version="1.0" encoding="UTF-8"?> <svg xmlns="http://www.w3.org/2000/svg" width="104" height="104" viewBox="0 0 104 104" fill="none"> <circle cx="52" cy="52" r="49.5" stroke="#E5E5E5" stroke-width="5"></circle> <circle cx="52" cy="52" r="49.5" fill="white" stroke="#E5E5E5" stroke-width="5"></circle> <mask id="mask0" mask-type="alpha" maskUnits="userSpaceOnUse" x="11" y="10" width="84" height="84"> <circle cx="53" cy="52" r="42" fill="#E5A5A5"></circle> </mask> <g mask="url(#mask0)"> <path d="M-3 19.1558V112.776C17.3849 124.518 59.2665 148 63.7142 148C68.1618 148 104.484 89.912 122.089 60.868C127.031 29.0432 125.425 -33.8649 79.4661 -30.8987C33.5075 -27.9325 5.33927 3.70691 -3 19.1558Z" fill="#F9F9F9"></path> <path d="M-3 118V21.8667C-0.236842 0.4 42.3158 -30.7733 102 -36" stroke="#E5E5E5" stroke-width="3"></path> <path d="M-2 69C18.3667 46.4552 75.08 -2.10753 139 -16" stroke="#E5E5E5" stroke-width="3"></path> <path d="M-2 126C17.0667 103.455 70.16 54.8925 130 41" stroke="#E5E5E5" stroke-width="3"></path> </g> <mask id="mask1" mask-type="alpha" maskUnits="userSpaceOnUse" x="9" y="5" width="90" height="90"> <circle cx="54" cy="50" r="45" fill="#E5A5A5"></circle> </mask> <g mask="url(#mask1)"> <path d="M44.1723 86.1169L44.1723 86.1169C44.1416 86.0992 44.111 86.0816 44.0803 86.0639C39.6082 83.492 34.9643 80.8023 31.408 77.3443C27.8738 73.9078 25.5 69.7937 25.5 64.3614V24.4405C29.6762 23.4894 35.2251 21.996 40.299 20.1765C43.0826 19.1784 45.7557 18.0706 47.9924 16.8853C49.7538 15.952 51.3462 14.9188 52.5 13.7824C53.6538 14.9188 55.2462 15.952 57.0076 16.8853C59.2443 18.0706 61.9174 19.1784 64.701 20.1765C69.7749 21.996 75.3238 23.4894 79.5 24.4405V64.3614C79.5 69.7937 77.1262 73.9078 73.592 77.3443C70.0113 80.826 65.328 83.5288 60.8277 86.1169L60.7405 86.167C57.7488 87.8875 54.8008 89.5827 52.5 91.402C50.1992 89.5827 47.2513 87.8875 44.2596 86.167L44.1723 86.1169Z" fill="white" stroke="#E5E5E5" stroke-width="3"></path> <path d="M46.4843 60.5557C42.1666 54.5459 38.3886 51.3838 34.0709 48.1058L31.9121 49.7448C38.3886 54.6619 43.246 67.4761 43.7857 72.5754C44.8652 73.1217 46.5922 73.8866 49.1828 72.5754C49.1828 63.2173 62.1359 41.4333 72.3904 32.9196L70.2315 31.1689C62.3507 37.3443 52.3963 51.3485 46.4843 60.5557Z" fill="#E5E5E5"></path> </g> </svg> 