<?xml version="1.0" encoding="UTF-8"?> <svg xmlns="http://www.w3.org/2000/svg" width="104" height="104" viewBox="0 0 104 104" fill="none"> <circle cx="52" cy="52" r="49.5" stroke="#E5E5E5" stroke-width="5"></circle> <circle cx="52" cy="52" r="49.5" fill="white" stroke="#E5E5E5" stroke-width="5"></circle> <mask id="mask0" mask-type="alpha" maskUnits="userSpaceOnUse" x="11" y="10" width="84" height="84"> <circle cx="53" cy="52" r="42" fill="#E5A5A5"></circle> </mask> <g mask="url(#mask0)"> <path d="M2 32.3874V104.041C17.7301 113.027 50.0482 131 53.4802 131C56.9122 131 84.9404 86.5416 98.5254 64.3123C102.339 39.9548 101.099 -8.19268 65.6353 -5.92246C30.1711 -3.65225 8.43503 20.5634 2 32.3874Z" fill="#F9F9F9"></path> <path d="M2 108V34.3394C4.13158 17.8909 36.9579 -5.99515 83 -10" stroke="#E5E5E5" stroke-width="3"></path> <path d="M3 71C18.6 53.4946 62.04 15.7871 111 5" stroke="#E5E5E5" stroke-width="3"></path> <path d="M3 118.5C17.5889 101.26 60.2133 52.1237 106 41.5" stroke="#E5E5E5" stroke-width="3"></path> </g> </svg> 