<svg width="100" height="160" viewBox="0 0 100 160" fill="none" xmlns="http://www.w3.org/2000/svg">
<g filter="url(#filter0_i_12_2)">
<path fill-rule="evenodd" clip-rule="evenodd" d="M0 0V30.5944H26.8716V72.956H65.4641V21.1819H53.7406V63.5413H38.8126V21.1819H11.9436V9.41464H80.6123V15.2982H92.5532V0H0Z" fill="url(#paint0_linear_12_2)"/>
</g>
<g filter="url(#filter1_i_12_2)">
<path fill-rule="evenodd" clip-rule="evenodd" d="M80.3191 72.4528V36.2264H92.5531V72.4528H80.3191Z" fill="url(#paint1_linear_12_2)"/>
</g>
<g filter="url(#filter2_i_12_2)">
<path fill-rule="evenodd" clip-rule="evenodd" d="M80.3191 25.4089C80.3191 23.0468 82.8306 21.1322 85.9286 21.1322H86.9436C90.0417 21.1321 92.5531 23.0469 92.5531 25.409C92.5531 27.7709 90.0417 29.6857 86.9435 29.6857L85.9286 29.6856C82.8306 29.6856 80.319 27.7708 80.3191 25.4089Z" fill="#00A2DD"/>
</g>
<g filter="url(#filter3_i_12_2)">
<path fill-rule="evenodd" clip-rule="evenodd" d="M16.3252 111.698V84.4628H21.8084V77.9875H1.59564V84.4628H7.07887V111.698H16.3252Z" fill="url(#paint2_linear_12_2)"/>
</g>
<g filter="url(#filter4_i_12_2)">
<path fill-rule="evenodd" clip-rule="evenodd" d="M30.1945 112.201C31.5743 112.201 32.7949 111.884 33.8032 111.209C34.8114 110.534 35.5013 109.622 35.979 108.431V111.884H45.2128V89.7386C45.2128 87.4368 44.2045 85.6509 42.1879 84.3809C40.1713 83.1506 37.571 82.5156 34.3338 82.5156C30.3007 82.5156 27.3819 83.1109 25.6306 84.3412C23.8264 85.5714 22.9242 87.5955 22.9242 90.453V91.4054H31.9458V89.6592C31.9458 89.0639 32.158 88.6273 32.5295 88.2702C32.901 87.913 33.3255 87.7543 33.8032 87.7543C34.3869 87.7542 34.8645 87.9527 35.2891 88.3496C35.6606 88.7861 35.8728 89.3814 35.8728 90.1355V93.0326V93.1119L33.3256 93.7469C30.4068 94.4216 28.2841 95.0566 26.8512 95.6122C25.4184 96.2074 24.357 97.0806 23.561 98.3109C22.765 99.5412 22.3405 101.287 22.3405 103.549C22.3405 106.328 22.9242 108.471 24.0386 109.939C25.153 111.447 27.1697 112.201 30.1945 112.201ZM33.8562 106.804C32.4765 106.804 31.7866 105.931 31.7866 104.224V100.494C31.7866 99.4221 32.105 98.549 32.7949 97.9537C33.4317 97.3584 34.44 96.8425 35.8197 96.4456V104.542C35.8197 105.177 35.6606 105.693 35.3952 106.129C35.0768 106.566 34.5461 106.804 33.8562 106.804Z" fill="url(#paint3_linear_12_2)"/>
</g>
<g filter="url(#filter5_i_12_2)">
<path fill-rule="evenodd" clip-rule="evenodd" d="M48.4044 111.698H57.9293V91.3886C57.9293 90.3239 58.0926 89.4563 58.4191 88.7859C58.6913 88.1549 59.3444 87.8394 60.3242 87.8394C61.0318 87.8394 61.576 88.0761 61.957 88.5099C62.2836 88.9436 62.4469 89.4958 62.4469 90.1267V111.698H71.8086V89.4169C71.8086 87.2085 71.1554 85.5128 69.9036 84.2902C68.5973 83.1072 66.5834 82.5156 63.9164 82.5156C62.2836 82.5156 60.9773 82.8706 59.9976 83.6198C59.0179 84.3691 58.3103 85.3156 57.9293 86.4986L57.9293 82.8312H48.4044V111.698Z" fill="url(#paint4_linear_12_2)"/>
</g>
<g filter="url(#filter6_i_12_2)">
<path fill-rule="evenodd" clip-rule="evenodd" d="M84.2415 111.698V98.0364L90.0641 111.698H100L92.5213 95.304L98.3974 82.7115H88.7287L84.2415 92.6905V77.4844H75V111.698H84.2415Z" fill="url(#paint5_linear_12_2)"/>
</g>
<g filter="url(#filter7_i_12_2)">
<path fill-rule="evenodd" clip-rule="evenodd" d="M7.44702 159.497V123.774H15.9577V159.497H7.44702Z" fill="url(#paint6_linear_12_2)"/>
</g>
<g filter="url(#filter8_i_12_2)">
<path fill-rule="evenodd" clip-rule="evenodd" d="M20.2128 129.137H29.9543V132.994C30.3621 131.75 31.0675 130.741 32.0696 129.966C33.0714 129.193 34.4076 128.805 36.0774 128.805C38.8234 128.805 40.8551 129.434 42.1727 130.692C43.4895 131.951 44.149 133.741 44.149 136.063V159.497H34.5745V136.81C34.5745 136.146 34.398 135.58 34.0457 135.109C33.6926 134.639 33.1454 134.404 32.4036 134.404C31.4015 134.404 30.7423 134.743 30.4275 135.42C30.1116 136.098 29.9543 137.004 29.9543 138.137V159.497H20.2128V129.137Z" fill="url(#paint7_linear_12_2)"/>
</g>
<g filter="url(#filter9_i_12_2)">
<path fill-rule="evenodd" clip-rule="evenodd" d="M61.6098 153.744C61.9896 153.327 62.1806 152.758 62.1806 152.034V137.104C62.1806 135.325 61.4003 134.435 59.8402 134.435C58.2797 134.435 57.5003 135.325 57.5003 137.104V152.034C57.5003 152.758 57.6901 153.327 58.0711 153.744C58.4507 154.161 59.0413 154.37 59.8402 154.37C60.6394 154.37 61.229 154.161 61.6098 153.744ZM47.3405 150.533V138.272C47.3405 135.381 48.4534 133.08 50.6794 131.37C52.9054 129.66 55.959 128.805 59.8402 128.805C63.7216 128.805 66.7753 129.66 69.0013 131.37C71.2273 133.08 72.3405 135.381 72.3405 138.272V150.533C72.3405 156.845 68.1736 160 59.8402 160C51.5071 160 47.3405 156.845 47.3405 150.533Z" fill="url(#paint8_linear_12_2)"/>
</g>
<g filter="url(#filter10_i_12_2)">
<path fill-rule="evenodd" clip-rule="evenodd" d="M99.4679 159.497H89.7675L85.6652 150.871L81.785 159.497H74.4679L81.8959 143.041L75.1331 128.805H85.0002L88.4924 136.258L91.9291 128.805H99.1353L92.1508 143.962L99.4679 159.497Z" fill="url(#paint9_linear_12_2)"/>
</g>
<g filter="url(#filter11_i_12_2)">
<path fill-rule="evenodd" clip-rule="evenodd" d="M17.0212 117.484C17.0212 120.124 14.2826 122.264 10.9042 122.264C7.52582 122.264 4.78717 120.124 4.78717 117.484C4.78717 114.844 7.52582 112.704 10.9042 112.704C14.2826 112.704 17.0212 114.844 17.0212 117.484Z" fill="#00A2DD"/>
</g>
<defs>
<filter id="filter0_i_12_2" x="0" y="0" width="92.5532" height="76.9559" filterUnits="userSpaceOnUse" color-interpolation-filters="sRGB">
<feFlood flood-opacity="0" result="BackgroundImageFix"/>
<feBlend mode="normal" in="SourceGraphic" in2="BackgroundImageFix" result="shape"/>
<feColorMatrix in="SourceAlpha" type="matrix" values="0 0 0 0 0 0 0 0 0 0 0 0 0 0 0 0 0 0 127 0" result="hardAlpha"/>
<feOffset dy="4"/>
<feGaussianBlur stdDeviation="2"/>
<feComposite in2="hardAlpha" operator="arithmetic" k2="-1" k3="1"/>
<feColorMatrix type="matrix" values="0 0 0 0 0 0 0 0 0 0 0 0 0 0 0 0 0 0 0.25 0"/>
<feBlend mode="normal" in2="shape" result="effect1_innerShadow_12_2"/>
</filter>
<filter id="filter1_i_12_2" x="80.3191" y="36.2264" width="12.2341" height="40.2264" filterUnits="userSpaceOnUse" color-interpolation-filters="sRGB">
<feFlood flood-opacity="0" result="BackgroundImageFix"/>
<feBlend mode="normal" in="SourceGraphic" in2="BackgroundImageFix" result="shape"/>
<feColorMatrix in="SourceAlpha" type="matrix" values="0 0 0 0 0 0 0 0 0 0 0 0 0 0 0 0 0 0 127 0" result="hardAlpha"/>
<feOffset dy="4"/>
<feGaussianBlur stdDeviation="2"/>
<feComposite in2="hardAlpha" operator="arithmetic" k2="-1" k3="1"/>
<feColorMatrix type="matrix" values="0 0 0 0 0 0 0 0 0 0 0 0 0 0 0 0 0 0 0.25 0"/>
<feBlend mode="normal" in2="shape" result="effect1_innerShadow_12_2"/>
</filter>
<filter id="filter2_i_12_2" x="80.3191" y="21.1322" width="12.234" height="12.5535" filterUnits="userSpaceOnUse" color-interpolation-filters="sRGB">
<feFlood flood-opacity="0" result="BackgroundImageFix"/>
<feBlend mode="normal" in="SourceGraphic" in2="BackgroundImageFix" result="shape"/>
<feColorMatrix in="SourceAlpha" type="matrix" values="0 0 0 0 0 0 0 0 0 0 0 0 0 0 0 0 0 0 127 0" result="hardAlpha"/>
<feOffset dy="4"/>
<feGaussianBlur stdDeviation="2"/>
<feComposite in2="hardAlpha" operator="arithmetic" k2="-1" k3="1"/>
<feColorMatrix type="matrix" values="0 0 0 0 0 0 0 0 0 0 0 0 0 0 0 0 0 0 0.25 0"/>
<feBlend mode="normal" in2="shape" result="effect1_innerShadow_12_2"/>
</filter>
<filter id="filter3_i_12_2" x="1.59564" y="77.9875" width="20.2128" height="37.7107" filterUnits="userSpaceOnUse" color-interpolation-filters="sRGB">
<feFlood flood-opacity="0" result="BackgroundImageFix"/>
<feBlend mode="normal" in="SourceGraphic" in2="BackgroundImageFix" result="shape"/>
<feColorMatrix in="SourceAlpha" type="matrix" values="0 0 0 0 0 0 0 0 0 0 0 0 0 0 0 0 0 0 127 0" result="hardAlpha"/>
<feOffset dy="4"/>
<feGaussianBlur stdDeviation="2"/>
<feComposite in2="hardAlpha" operator="arithmetic" k2="-1" k3="1"/>
<feColorMatrix type="matrix" values="0 0 0 0 0 0 0 0 0 0 0 0 0 0 0 0 0 0 0.25 0"/>
<feBlend mode="normal" in2="shape" result="effect1_innerShadow_12_2"/>
</filter>
<filter id="filter4_i_12_2" x="22.3405" y="82.5156" width="22.8723" height="33.6855" filterUnits="userSpaceOnUse" color-interpolation-filters="sRGB">
<feFlood flood-opacity="0" result="BackgroundImageFix"/>
<feBlend mode="normal" in="SourceGraphic" in2="BackgroundImageFix" result="shape"/>
<feColorMatrix in="SourceAlpha" type="matrix" values="0 0 0 0 0 0 0 0 0 0 0 0 0 0 0 0 0 0 127 0" result="hardAlpha"/>
<feOffset dy="4"/>
<feGaussianBlur stdDeviation="2"/>
<feComposite in2="hardAlpha" operator="arithmetic" k2="-1" k3="1"/>
<feColorMatrix type="matrix" values="0 0 0 0 0 0 0 0 0 0 0 0 0 0 0 0 0 0 0.25 0"/>
<feBlend mode="normal" in2="shape" result="effect1_innerShadow_12_2"/>
</filter>
<filter id="filter5_i_12_2" x="48.4044" y="82.5156" width="23.4042" height="33.1824" filterUnits="userSpaceOnUse" color-interpolation-filters="sRGB">
<feFlood flood-opacity="0" result="BackgroundImageFix"/>
<feBlend mode="normal" in="SourceGraphic" in2="BackgroundImageFix" result="shape"/>
<feColorMatrix in="SourceAlpha" type="matrix" values="0 0 0 0 0 0 0 0 0 0 0 0 0 0 0 0 0 0 127 0" result="hardAlpha"/>
<feOffset dy="4"/>
<feGaussianBlur stdDeviation="2"/>
<feComposite in2="hardAlpha" operator="arithmetic" k2="-1" k3="1"/>
<feColorMatrix type="matrix" values="0 0 0 0 0 0 0 0 0 0 0 0 0 0 0 0 0 0 0.25 0"/>
<feBlend mode="normal" in2="shape" result="effect1_innerShadow_12_2"/>
</filter>
<filter id="filter6_i_12_2" x="75" y="77.4844" width="25" height="38.2139" filterUnits="userSpaceOnUse" color-interpolation-filters="sRGB">
<feFlood flood-opacity="0" result="BackgroundImageFix"/>
<feBlend mode="normal" in="SourceGraphic" in2="BackgroundImageFix" result="shape"/>
<feColorMatrix in="SourceAlpha" type="matrix" values="0 0 0 0 0 0 0 0 0 0 0 0 0 0 0 0 0 0 127 0" result="hardAlpha"/>
<feOffset dy="4"/>
<feGaussianBlur stdDeviation="2"/>
<feComposite in2="hardAlpha" operator="arithmetic" k2="-1" k3="1"/>
<feColorMatrix type="matrix" values="0 0 0 0 0 0 0 0 0 0 0 0 0 0 0 0 0 0 0.25 0"/>
<feBlend mode="normal" in2="shape" result="effect1_innerShadow_12_2"/>
</filter>
<filter id="filter7_i_12_2" x="7.44702" y="123.774" width="8.51062" height="39.7233" filterUnits="userSpaceOnUse" color-interpolation-filters="sRGB">
<feFlood flood-opacity="0" result="BackgroundImageFix"/>
<feBlend mode="normal" in="SourceGraphic" in2="BackgroundImageFix" result="shape"/>
<feColorMatrix in="SourceAlpha" type="matrix" values="0 0 0 0 0 0 0 0 0 0 0 0 0 0 0 0 0 0 127 0" result="hardAlpha"/>
<feOffset dy="4"/>
<feGaussianBlur stdDeviation="2"/>
<feComposite in2="hardAlpha" operator="arithmetic" k2="-1" k3="1"/>
<feColorMatrix type="matrix" values="0 0 0 0 0 0 0 0 0 0 0 0 0 0 0 0 0 0 0.25 0"/>
<feBlend mode="normal" in2="shape" result="effect1_innerShadow_12_2"/>
</filter>
<filter id="filter8_i_12_2" x="20.2128" y="128.805" width="23.9362" height="34.6918" filterUnits="userSpaceOnUse" color-interpolation-filters="sRGB">
<feFlood flood-opacity="0" result="BackgroundImageFix"/>
<feBlend mode="normal" in="SourceGraphic" in2="BackgroundImageFix" result="shape"/>
<feColorMatrix in="SourceAlpha" type="matrix" values="0 0 0 0 0 0 0 0 0 0 0 0 0 0 0 0 0 0 127 0" result="hardAlpha"/>
<feOffset dy="4"/>
<feGaussianBlur stdDeviation="2"/>
<feComposite in2="hardAlpha" operator="arithmetic" k2="-1" k3="1"/>
<feColorMatrix type="matrix" values="0 0 0 0 0 0 0 0 0 0 0 0 0 0 0 0 0 0 0.25 0"/>
<feBlend mode="normal" in2="shape" result="effect1_innerShadow_12_2"/>
</filter>
<filter id="filter9_i_12_2" x="47.3405" y="128.805" width="25" height="35.1949" filterUnits="userSpaceOnUse" color-interpolation-filters="sRGB">
<feFlood flood-opacity="0" result="BackgroundImageFix"/>
<feBlend mode="normal" in="SourceGraphic" in2="BackgroundImageFix" result="shape"/>
<feColorMatrix in="SourceAlpha" type="matrix" values="0 0 0 0 0 0 0 0 0 0 0 0 0 0 0 0 0 0 127 0" result="hardAlpha"/>
<feOffset dy="4"/>
<feGaussianBlur stdDeviation="2"/>
<feComposite in2="hardAlpha" operator="arithmetic" k2="-1" k3="1"/>
<feColorMatrix type="matrix" values="0 0 0 0 0 0 0 0 0 0 0 0 0 0 0 0 0 0 0.25 0"/>
<feBlend mode="normal" in2="shape" result="effect1_innerShadow_12_2"/>
</filter>
<filter id="filter10_i_12_2" x="74.4679" y="128.805" width="25" height="34.6918" filterUnits="userSpaceOnUse" color-interpolation-filters="sRGB">
<feFlood flood-opacity="0" result="BackgroundImageFix"/>
<feBlend mode="normal" in="SourceGraphic" in2="BackgroundImageFix" result="shape"/>
<feColorMatrix in="SourceAlpha" type="matrix" values="0 0 0 0 0 0 0 0 0 0 0 0 0 0 0 0 0 0 127 0" result="hardAlpha"/>
<feOffset dy="4"/>
<feGaussianBlur stdDeviation="2"/>
<feComposite in2="hardAlpha" operator="arithmetic" k2="-1" k3="1"/>
<feColorMatrix type="matrix" values="0 0 0 0 0 0 0 0 0 0 0 0 0 0 0 0 0 0 0.25 0"/>
<feBlend mode="normal" in2="shape" result="effect1_innerShadow_12_2"/>
</filter>
<filter id="filter11_i_12_2" x="4.78717" y="112.704" width="12.2341" height="13.5597" filterUnits="userSpaceOnUse" color-interpolation-filters="sRGB">
<feFlood flood-opacity="0" result="BackgroundImageFix"/>
<feBlend mode="normal" in="SourceGraphic" in2="BackgroundImageFix" result="shape"/>
<feColorMatrix in="SourceAlpha" type="matrix" values="0 0 0 0 0 0 0 0 0 0 0 0 0 0 0 0 0 0 127 0" result="hardAlpha"/>
<feOffset dy="4"/>
<feGaussianBlur stdDeviation="2"/>
<feComposite in2="hardAlpha" operator="arithmetic" k2="-1" k3="1"/>
<feColorMatrix type="matrix" values="0 0 0 0 0 0 0 0 0 0 0 0 0 0 0 0 0 0 0.25 0"/>
<feBlend mode="normal" in2="shape" result="effect1_innerShadow_12_2"/>
</filter>
<linearGradient id="paint0_linear_12_2" x1="46.2766" y1="0" x2="46.2766" y2="72.956" gradientUnits="userSpaceOnUse">
<stop stop-color="white"/>
<stop offset="0.5" stop-color="#555555" stop-opacity="0.93"/>
<stop offset="1" stop-color="#FFF3F3"/>
</linearGradient>
<linearGradient id="paint1_linear_12_2" x1="86.4361" y1="36.2264" x2="86.4361" y2="72.4528" gradientUnits="userSpaceOnUse">
<stop stop-color="white"/>
<stop offset="0.5" stop-color="#555555" stop-opacity="0.93"/>
<stop offset="1" stop-color="#FFF3F3"/>
</linearGradient>
<linearGradient id="paint2_linear_12_2" x1="11.702" y1="77.9875" x2="11.702" y2="111.698" gradientUnits="userSpaceOnUse">
<stop stop-color="white"/>
<stop offset="0.5" stop-color="#555555" stop-opacity="0.93"/>
<stop offset="1" stop-color="#FFF3F3"/>
</linearGradient>
<linearGradient id="paint3_linear_12_2" x1="33.7766" y1="82.5156" x2="33.7766" y2="112.201" gradientUnits="userSpaceOnUse">
<stop stop-color="white"/>
<stop offset="0.5" stop-color="#555555" stop-opacity="0.93"/>
<stop offset="1" stop-color="#FFF3F3"/>
</linearGradient>
<linearGradient id="paint4_linear_12_2" x1="60.1065" y1="82.5156" x2="60.1065" y2="111.698" gradientUnits="userSpaceOnUse">
<stop stop-color="white"/>
<stop offset="0.5" stop-color="#555555" stop-opacity="0.93"/>
<stop offset="1" stop-color="#FFF3F3"/>
</linearGradient>
<linearGradient id="paint5_linear_12_2" x1="87.5" y1="77.4844" x2="87.5" y2="111.698" gradientUnits="userSpaceOnUse">
<stop stop-color="white"/>
<stop offset="0.5" stop-color="#555555" stop-opacity="0.93"/>
<stop offset="1" stop-color="#FFF3F3"/>
</linearGradient>
<linearGradient id="paint6_linear_12_2" x1="11.7023" y1="123.774" x2="11.7023" y2="159.497" gradientUnits="userSpaceOnUse">
<stop stop-color="white"/>
<stop offset="0.5" stop-color="#555555" stop-opacity="0.93"/>
<stop offset="1" stop-color="#FFF3F3"/>
</linearGradient>
<linearGradient id="paint7_linear_12_2" x1="32.1809" y1="128.805" x2="32.1809" y2="159.497" gradientUnits="userSpaceOnUse">
<stop stop-color="white"/>
<stop offset="0.5" stop-color="#555555" stop-opacity="0.93"/>
<stop offset="1" stop-color="#FFF3F3"/>
</linearGradient>
<linearGradient id="paint8_linear_12_2" x1="59.8405" y1="128.805" x2="59.8405" y2="160" gradientUnits="userSpaceOnUse">
<stop stop-color="white"/>
<stop offset="0.5" stop-color="#555555" stop-opacity="0.93"/>
<stop offset="1" stop-color="#FFF3F3"/>
</linearGradient>
<linearGradient id="paint9_linear_12_2" x1="86.9679" y1="128.805" x2="86.9679" y2="159.497" gradientUnits="userSpaceOnUse">
<stop stop-color="white"/>
<stop offset="0.5" stop-color="#555555" stop-opacity="0.93"/>
<stop offset="1" stop-color="#FFF3F3"/>
</linearGradient>
</defs>
</svg>
