<svg width="146" height="257" viewBox="0 0 146 257" fill="none" xmlns="http://www.w3.org/2000/svg">
<path fill-rule="evenodd" clip-rule="evenodd" d="M0 0V48.8575H39.2686V116.507H95.6652V33.8263H78.5333V101.472H56.7183V33.8263H17.4536V15.0347H117.802V24.4304H135.252V0H0Z" fill="black"/>
<path fill-rule="evenodd" clip-rule="evenodd" d="M118.233 116.507V59.11H135.251V116.507H118.233Z" fill="black"/>
<path fill-rule="evenodd" clip-rule="evenodd" d="M118.233 41.12C118.233 37.3348 121.727 34.2667 126.036 34.2667H127.448C131.758 34.2665 135.251 37.3349 135.251 41.1201C135.251 44.905 131.758 47.9734 127.448 47.9734L126.036 47.9733C121.727 47.9733 118.233 44.9049 118.233 41.12Z" fill="#0081DD"/>
<path fill-rule="evenodd" clip-rule="evenodd" d="M23.5741 179.043V135.44H31.3496V125.073H2.68701V135.44H10.4625V179.043H23.5741Z" fill="black"/>
<path fill-rule="evenodd" clip-rule="evenodd" d="M43.9329 179.9C45.9862 179.9 47.8026 179.387 49.303 178.297C50.8035 177.206 51.8301 175.731 52.5409 173.807V179.387H66.2819V143.599C66.2819 139.879 64.7815 136.993 61.7806 134.941C58.7796 132.953 54.91 131.927 50.0927 131.927C44.0909 131.927 39.7474 132.889 37.1413 134.877C34.4564 136.865 33.1138 140.136 33.1138 144.754V146.293H46.539V143.471C46.539 142.509 46.8548 141.803 47.4077 141.226C47.9605 140.649 48.5922 140.393 49.303 140.393C50.1717 140.393 50.8825 140.713 51.5142 141.355C52.0671 142.06 52.3829 143.022 52.3829 144.241V148.923V149.051L48.5923 150.077C44.2488 151.167 41.09 152.194 38.9577 153.091C36.8255 154.053 35.246 155.464 34.0614 157.453C32.8769 159.441 32.2451 162.263 32.2451 165.918C32.2451 170.408 33.1138 173.871 34.7722 176.244C36.4306 178.681 39.4316 179.9 43.9329 179.9ZM49.382 171.178C47.3287 171.178 46.3021 169.767 46.3021 167.009V160.98C46.3021 159.248 46.7759 157.837 47.8026 156.875C48.7502 155.913 50.2506 155.08 52.3039 154.438V167.522C52.3039 168.548 52.0671 169.382 51.6721 170.087C51.1984 170.793 50.4086 171.178 49.382 171.178Z" fill="black"/>
<path fill-rule="evenodd" clip-rule="evenodd" d="M70.7607 179.043H84.2484V146.253C84.2484 144.534 84.4796 143.133 84.9419 142.05C85.3274 141.032 86.2522 140.522 87.6396 140.522C88.6415 140.522 89.4121 140.904 89.9517 141.605C90.4141 142.305 90.6454 143.196 90.6454 144.215V179.043H103.902V143.069C103.902 139.504 102.977 136.766 101.204 134.792C99.3545 132.882 96.5029 131.927 92.7263 131.927C90.4141 131.927 88.5644 132.5 87.1771 133.709C85.7898 134.919 84.7879 136.447 84.2483 138.357L84.2484 132.436H70.7607V179.043Z" fill="black"/>
<path fill-rule="evenodd" clip-rule="evenodd" d="M123.416 179.043V157.151L131.761 179.043H146L135.282 152.772L143.703 132.593H129.847L123.416 148.584V124.217H110.172V179.043H123.416Z" fill="black"/>
<path fill-rule="evenodd" clip-rule="evenodd" d="M9.85303 256.143V198.747H23.2886V256.143H9.85303Z" fill="black"/>
<path fill-rule="evenodd" clip-rule="evenodd" d="M28.6626 206.994H43.2439V213.238C43.8542 211.224 44.9101 209.591 46.41 208.337C47.9097 207.084 49.9096 206.457 52.4091 206.457C56.5193 206.457 59.5605 207.475 61.5326 209.512C63.5037 211.549 64.4908 214.447 64.4908 218.207V256.143H50.1595V219.416C50.1595 218.341 49.8953 217.424 49.3679 216.663C48.8395 215.902 48.0204 215.521 46.91 215.521C45.4101 215.521 44.4234 216.07 43.9522 217.166C43.4793 218.264 43.2439 219.729 43.2439 221.564V256.143H28.6626V206.994Z" fill="black"/>
<path fill-rule="evenodd" clip-rule="evenodd" d="M90.315 246.864C90.8594 246.188 91.1331 245.266 91.1331 244.094V219.903C91.1331 217.021 90.0147 215.579 87.7789 215.579C85.5426 215.579 84.4256 217.021 84.4256 219.903V244.094C84.4256 245.266 84.6976 246.188 85.2436 246.864C85.7876 247.54 86.634 247.878 87.7789 247.878C88.9244 247.878 89.7693 247.54 90.315 246.864ZM69.8652 241.661V221.795C69.8652 217.111 71.4602 213.383 74.6503 210.612C77.8405 207.842 82.2167 206.457 87.7789 206.457C93.3416 206.457 97.7179 207.842 100.908 210.612C104.098 213.383 105.693 217.111 105.693 221.795V241.661C105.693 251.888 99.7219 257 87.7789 257C75.8366 257 69.8652 251.888 69.8652 241.661Z" fill="black"/>
<path fill-rule="evenodd" clip-rule="evenodd" d="M145.104 256.143H130.855L124.829 242.42L119.129 256.143H108.38L119.292 229.963L109.358 207.313H123.852L128.982 219.171L134.03 207.313H144.616L134.356 231.428L145.104 256.143Z" fill="black"/>
<path fill-rule="evenodd" clip-rule="evenodd" d="M24.1842 188.895C24.1842 192.917 20.5751 196.177 16.1229 196.177C11.6707 196.177 8.06152 192.917 8.06152 188.895C8.06152 184.874 11.6707 181.613 16.1229 181.613C20.5751 181.613 24.1842 184.874 24.1842 188.895Z" fill="#0081DD"/>
<path fill-rule="evenodd" clip-rule="evenodd" d="M0 0V48.8575H39.2686V116.507H95.6652V33.8263H78.5333V101.472H56.7183V33.8263H17.4536V15.0347H117.802V24.4304H135.252V0H0Z" fill="url(#paint0_linear_7_183)"/>
<path fill-rule="evenodd" clip-rule="evenodd" d="M118.233 116.507V59.11H135.251V116.507H118.233Z" fill="url(#paint1_linear_7_183)"/>
<path fill-rule="evenodd" clip-rule="evenodd" d="M118.233 41.12C118.233 37.3348 121.727 34.2667 126.036 34.2667H127.448C131.758 34.2665 135.251 37.3349 135.251 41.1201C135.251 44.905 131.758 47.9734 127.448 47.9734L126.036 47.9733C121.727 47.9733 118.233 44.9049 118.233 41.12Z" fill="#0081DD"/>
<path fill-rule="evenodd" clip-rule="evenodd" d="M23.5741 179.043V135.44H31.3496V125.073H2.68701V135.44H10.4625V179.043H23.5741Z" fill="url(#paint2_linear_7_183)"/>
<path fill-rule="evenodd" clip-rule="evenodd" d="M43.9329 179.9C45.9862 179.9 47.8026 179.387 49.303 178.297C50.8035 177.206 51.8301 175.731 52.5409 173.807V179.387H66.2819V143.599C66.2819 139.879 64.7815 136.993 61.7806 134.941C58.7796 132.953 54.91 131.927 50.0927 131.927C44.0909 131.927 39.7474 132.889 37.1413 134.877C34.4564 136.865 33.1138 140.136 33.1138 144.754V146.293H46.539V143.471C46.539 142.509 46.8548 141.803 47.4077 141.226C47.9605 140.649 48.5922 140.393 49.303 140.393C50.1717 140.393 50.8825 140.713 51.5142 141.355C52.0671 142.06 52.3829 143.022 52.3829 144.241V148.923V149.051L48.5923 150.077C44.2488 151.167 41.09 152.194 38.9577 153.091C36.8255 154.053 35.246 155.464 34.0614 157.453C32.8769 159.441 32.2451 162.263 32.2451 165.918C32.2451 170.408 33.1138 173.871 34.7722 176.244C36.4306 178.681 39.4316 179.9 43.9329 179.9ZM49.382 171.178C47.3287 171.178 46.3021 169.767 46.3021 167.009V160.98C46.3021 159.248 46.7759 157.837 47.8026 156.875C48.7502 155.913 50.2506 155.08 52.3039 154.438V167.522C52.3039 168.548 52.0671 169.382 51.6721 170.087C51.1984 170.793 50.4086 171.178 49.382 171.178Z" fill="url(#paint3_linear_7_183)"/>
<path fill-rule="evenodd" clip-rule="evenodd" d="M70.7607 179.043H84.2484V146.253C84.2484 144.534 84.4796 143.133 84.9419 142.05C85.3274 141.032 86.2522 140.522 87.6396 140.522C88.6415 140.522 89.4121 140.904 89.9517 141.605C90.4141 142.305 90.6454 143.196 90.6454 144.215V179.043H103.902V143.069C103.902 139.504 102.977 136.766 101.204 134.792C99.3545 132.882 96.5029 131.927 92.7263 131.927C90.4141 131.927 88.5644 132.5 87.1771 133.709C85.7898 134.919 84.7879 136.447 84.2483 138.357L84.2484 132.436H70.7607V179.043Z" fill="url(#paint4_linear_7_183)"/>
<path fill-rule="evenodd" clip-rule="evenodd" d="M123.416 179.043V157.151L131.761 179.043H146L135.282 152.772L143.703 132.593H129.847L123.416 148.584V124.217H110.172V179.043H123.416Z" fill="url(#paint5_linear_7_183)"/>
<path fill-rule="evenodd" clip-rule="evenodd" d="M9.85303 256.143V198.747H23.2886V256.143H9.85303Z" fill="url(#paint6_linear_7_183)"/>
<path fill-rule="evenodd" clip-rule="evenodd" d="M28.6626 206.994H43.2439V213.238C43.8542 211.224 44.9101 209.591 46.41 208.337C47.9097 207.084 49.9096 206.457 52.4091 206.457C56.5193 206.457 59.5605 207.475 61.5326 209.512C63.5037 211.549 64.4908 214.447 64.4908 218.207V256.143H50.1595V219.416C50.1595 218.341 49.8953 217.424 49.3679 216.663C48.8395 215.902 48.0204 215.521 46.91 215.521C45.4101 215.521 44.4234 216.07 43.9522 217.166C43.4793 218.264 43.2439 219.729 43.2439 221.564V256.143H28.6626V206.994Z" fill="url(#paint7_linear_7_183)"/>
<path fill-rule="evenodd" clip-rule="evenodd" d="M90.315 246.864C90.8594 246.188 91.1331 245.266 91.1331 244.094V219.903C91.1331 217.021 90.0147 215.579 87.7789 215.579C85.5426 215.579 84.4256 217.021 84.4256 219.903V244.094C84.4256 245.266 84.6976 246.188 85.2436 246.864C85.7876 247.54 86.634 247.878 87.7789 247.878C88.9244 247.878 89.7693 247.54 90.315 246.864ZM69.8652 241.661V221.795C69.8652 217.111 71.4602 213.383 74.6503 210.612C77.8405 207.842 82.2167 206.457 87.7789 206.457C93.3416 206.457 97.7179 207.842 100.908 210.612C104.098 213.383 105.693 217.111 105.693 221.795V241.661C105.693 251.888 99.7219 257 87.7789 257C75.8366 257 69.8652 251.888 69.8652 241.661Z" fill="url(#paint8_linear_7_183)"/>
<path fill-rule="evenodd" clip-rule="evenodd" d="M145.104 256.143H130.855L124.829 242.42L119.129 256.143H108.38L119.292 229.963L109.358 207.313H123.852L128.982 219.171L134.03 207.313H144.616L134.356 231.428L145.104 256.143Z" fill="url(#paint9_linear_7_183)"/>
<path fill-rule="evenodd" clip-rule="evenodd" d="M24.1842 188.895C24.1842 192.917 20.5751 196.177 16.1229 196.177C11.6707 196.177 8.06152 192.917 8.06152 188.895C8.06152 184.874 11.6707 181.613 16.1229 181.613C20.5751 181.613 24.1842 184.874 24.1842 188.895Z" fill="#019BDD"/>
<defs>
<linearGradient id="paint0_linear_7_183" x1="67.6258" y1="0" x2="67.6258" y2="116.507" gradientUnits="userSpaceOnUse">
<stop stop-color="#ECECEC"/>
<stop offset="0.5" stop-color="#373737"/>
<stop offset="1" stop-color="#ECECEC"/>
</linearGradient>
<linearGradient id="paint1_linear_7_183" x1="126.742" y1="59.11" x2="126.742" y2="116.507" gradientUnits="userSpaceOnUse">
<stop stop-color="#ECECEC"/>
<stop offset="0.5" stop-color="#373737"/>
<stop offset="1" stop-color="#ECECEC"/>
</linearGradient>
<linearGradient id="paint2_linear_7_183" x1="17.0183" y1="125.073" x2="17.0183" y2="179.043" gradientUnits="userSpaceOnUse">
<stop stop-color="#ECECEC"/>
<stop offset="0.5" stop-color="#373737"/>
<stop offset="1" stop-color="#ECECEC"/>
</linearGradient>
<linearGradient id="paint3_linear_7_183" x1="49.2635" y1="131.927" x2="49.2635" y2="179.9" gradientUnits="userSpaceOnUse">
<stop stop-color="#ECECEC"/>
<stop offset="0.5" stop-color="#373737"/>
<stop offset="1" stop-color="#ECECEC"/>
</linearGradient>
<linearGradient id="paint4_linear_7_183" x1="87.3313" y1="131.927" x2="87.3313" y2="179.043" gradientUnits="userSpaceOnUse">
<stop stop-color="#ECECEC"/>
<stop offset="0.5" stop-color="#373737"/>
<stop offset="1" stop-color="#ECECEC"/>
</linearGradient>
<linearGradient id="paint5_linear_7_183" x1="128.086" y1="124.217" x2="128.086" y2="179.043" gradientUnits="userSpaceOnUse">
<stop stop-color="#ECECEC"/>
<stop offset="0.5" stop-color="#373737"/>
<stop offset="1" stop-color="#ECECEC"/>
</linearGradient>
<linearGradient id="paint6_linear_7_183" x1="16.5708" y1="198.747" x2="16.5708" y2="256.143" gradientUnits="userSpaceOnUse">
<stop stop-color="#ECECEC"/>
<stop offset="0.5" stop-color="#373737"/>
<stop offset="1" stop-color="#ECECEC"/>
</linearGradient>
<linearGradient id="paint7_linear_7_183" x1="46.5767" y1="206.457" x2="46.5767" y2="256.143" gradientUnits="userSpaceOnUse">
<stop stop-color="#ECECEC"/>
<stop offset="0.5" stop-color="#373737"/>
<stop offset="1" stop-color="#ECECEC"/>
</linearGradient>
<linearGradient id="paint8_linear_7_183" x1="87.7793" y1="206.457" x2="87.7793" y2="257" gradientUnits="userSpaceOnUse">
<stop stop-color="#ECECEC"/>
<stop offset="0.5" stop-color="#373737"/>
<stop offset="1" stop-color="#ECECEC"/>
</linearGradient>
<linearGradient id="paint9_linear_7_183" x1="126.742" y1="207.313" x2="126.742" y2="256.143" gradientUnits="userSpaceOnUse">
<stop stop-color="#ECECEC"/>
<stop offset="0.5" stop-color="#373737"/>
<stop offset="1" stop-color="#ECECEC"/>
</linearGradient>
</defs>
</svg>
